<?xml version="1.0" encoding="utf-8"?>
<!-- Generator: Adobe Illustrator 22.1.0, SVG Export Plug-In . SVG Version: 6.00 Build 0)  -->
<svg version="1.1" id="Calque_1" xmlns="http://www.w3.org/2000/svg" xmlns:xlink="http://www.w3.org/1999/xlink" x="0px" y="0px"
	 viewBox="0 0 150 38" style="enable-background:new 0 0 150 38;" xml:space="preserve">
<style type="text/css">
	.st0{fill:#182A45;}
	.st1{fill:#7C0BFF;}
	.st2{fill:#FFFFFF;}
</style>
<g>
	<g>
		<g>
			<path class="st0" d="M66,14.1c-3.9,0-6.6,2.9-6.6,7.2c0,4.2,2.9,7.2,6.9,7.2c2.2,0,4.3-0.9,5.6-2.4l0,0l-2.1-2l0,0
				c-0.8,1-2.1,1.7-3.5,1.7c-2.1,0-3.6-1.2-4-3.3h10.1v-0.1c0-0.2,0-0.4,0-0.6c0-0.1,0-0.3,0-0.4v-0.7c0-0.9-0.1-1.7-0.4-2.5
				C71.1,15.6,68.9,14.1,66,14.1z M62.3,19.9c0.4-2,1.7-3.2,3.7-3.2c2,0,3.1,1,3.4,3.2H62.3z"/>
			<path class="st0" d="M114.9,15.9c-1.2-1.2-2.8-1.8-4.5-1.8c-3.8,0-6.7,3.1-6.7,7.2c0,2,0.7,3.8,1.9,5.1c1.2,1.3,2.9,2,4.8,2
				c1.9,0,3.6-0.7,4.9-2.1l0.1,1.8h2.4V9.9h-2.9V15.9z M115,21.2c0,2.6-1.7,4.4-4.2,4.4c-2.4,0-4.2-1.9-4.2-4.4
				c0-2.6,1.7-4.5,4.2-4.5C113.2,16.8,115,18.6,115,21.2z"/>
			<path class="st0" d="M132.4,18.2c-0.9-2.5-3.1-4.1-6-4.1c-3.9,0-6.6,2.9-6.6,7.2c0,4.2,2.9,7.2,6.9,7.2c2.2,0,4.3-0.9,5.6-2.4
				l0,0l-2.1-2l0,0c-0.8,1-2.1,1.7-3.5,1.7c-2.1,0-3.6-1.2-4-3.3h10.1v-0.1c0-0.2,0-0.4,0-0.6c0-0.1,0-0.3,0-0.4v-0.7
				C132.8,19.8,132.7,18.9,132.4,18.2z M122.7,19.9c0.4-2,1.7-3.2,3.7-3.2c2,0,3.1,1,3.4,3.2H122.7z"/>
			<path class="st0" d="M80.7,14.1c-4.2,0-6.3,2-6.3,5.9v8.1h2.9v-8.3c0-1.8,1.4-3,3.5-3s3.5,1.2,3.5,3v8.3h2.9v-8.5
				C87.1,16.3,84.5,14.1,80.7,14.1z"/>
			<path class="st0" d="M89.5,17.9v10.2h2.9V16.7h4.4v-2.7h-3.4C91.2,14.1,89.5,15.8,89.5,17.9z"/>
			<rect x="98.9" y="14.1" class="st0" width="2.9" height="14"/>
			<polygon class="st0" points="44.8,12.8 53.6,12.8 44.7,28.1 58.6,28.1 58.6,25.2 49.7,25.2 58.6,10 58.6,9.9 44.8,9.9 			"/>
		</g>
		<path class="st1" d="M100.3,9.1c-1,0-1.7,0.7-1.7,1.7c0,1,0.7,1.7,1.7,1.7c1,0,1.8-0.7,1.8-1.7C102.1,9.8,101.3,9.1,100.3,9.1z"/>
		<g>
			<circle class="st1" cx="18.9" cy="19" r="18.9"/>
			<g>
				<path class="st2" d="M27.6,12h-5c0-0.2,0.1-0.5,0.1-0.7c0.1-1.2-0.3-2.5-1.2-3.4c-0.8-0.9-2-1.4-3.2-1.4h-3.5
					c-0.8,0-1.4,0.6-1.4,1.4c0,0.8,0.6,1.4,1.4,1.4h3.5c0.5,0,0.9,0.2,1.2,0.5c0.3,0.3,0.5,0.8,0.4,1.3c-0.3,3.6-1,6.4-3,11.1
					c-0.3,0.7,0,1.5,0.7,1.8c0.2,0.1,0.4,0.1,0.5,0.1c0.5,0,1.1-0.3,1.3-0.8c1.3-3.1,2.2-5.6,2.8-8.4h5.4c0.8,0,1.4-0.6,1.4-1.4
					S28.4,12,27.6,12z"/>
				<path class="st2" d="M18,13.4c0-1-0.8-1.8-1.8-1.8s-1.8,0.8-1.8,1.8c0,1,0.8,1.8,1.8,1.8S18,14.4,18,13.4z"/>
				<path class="st2" d="M24.8,19.2c-0.7,0.2-1.1,1-0.9,1.7c0.2,0.6,0.3,1.2,0.3,1.8c0,3.3-2.7,6-6,6c-3.3,0-6-2.7-6-6
					c0-1.5,0.6-2.9,1.6-4.1c0.5-0.6,0.5-1.4-0.1-2c-0.6-0.5-1.4-0.5-2,0.1c-1.5,1.6-2.3,3.7-2.3,5.9c0,4.8,3.9,8.8,8.8,8.8
					s8.8-3.9,8.8-8.8c0-0.9-0.1-1.8-0.4-2.6C26.3,19.3,25.5,18.9,24.8,19.2z"/>
			</g>
		</g>
	</g>
</g>
</svg>
